<?xml version="1.0" encoding="UTF-8"?>
<!DOCTYPE svg PUBLIC "-//W3C//DTD SVG 1.1//EN" "http://www.w3.org/Graphics/SVG/1.1/DTD/svg11.dtd">
<!-- Creator: CorelDRAW 2020 (64-Bit) -->
<svg xmlns="http://www.w3.org/2000/svg" xml:space="preserve" width="77.3286mm" height="77.3286mm" version="1.1" style="shape-rendering:geometricPrecision; text-rendering:geometricPrecision; image-rendering:optimizeQuality; fill-rule:evenodd; clip-rule:evenodd"
viewBox="0 0 2940.03 2940.03"
 xmlns:xlink="http://www.w3.org/1999/xlink"
 xmlns:xodm="http://www.corel.com/coreldraw/odm/2003">
 <defs>
  <style type="text/css">
   <![CDATA[
    .fil1 {fill:none}
    .fil0 {fill:#B8C3CF}
   ]]>
  </style>
 </defs>
 <g id="Layer_x0020_1">
  <metadata id="CorelCorpID_0Corel-Layer"/>
  <path class="fil0" d="M2714.75 2581.89l0 -151.28c-18.26,-37.06 -14.39,-122.56 -69.41,-245.46 -65.2,-145.64 -157.09,-249.88 -282.15,-341.88 -63.54,-46.74 -126.1,-70.14 -204.27,-105.68l235.46 33c-21.9,-22.42 -42.21,-30.02 -88.46,-79.96 -20.6,-22.24 -48.75,-66.73 -64.91,-99.67 -151.82,-309.47 -81.29,-577.11 -122.26,-870.48 -109.65,-785.07 -813.57,-805.17 -1101.08,-471.96 -344.08,398.78 -99.21,913.02 -312.9,1338.06 -29.67,59 -75.99,124.88 -127.45,161.39l-28 25.12 152.9 -6c-10.82,12.72 -64.25,38.35 -87.32,52.9 -416.06,262.39 -492.57,844.77 -259.75,1004.49 121.04,83.04 317.95,69.02 481.71,68.53 364.21,-1.08 730.06,-6.99 1094.98,-3.01 153.1,1.67 386.97,18.21 527.77,-13.72 251.31,-56.98 227.1,-227.82 255.16,-294.39zm-1495.61 -749.47c-72.61,-34.15 -124.72,-56.25 -222.11,-56.71 21.76,45.37 75.16,86.86 122.68,113.83 172.3,97.79 122.33,-11.39 214.13,143.38 15.04,25.35 30.51,49.68 45.47,73.66l84.67 136.63c8.35,10.49 3.51,4.46 8.3,9.29l170.02 -273.09c14.31,-23.64 9.43,-26.8 33.38,-34.58 75.92,-24.68 117.41,-33.56 180.18,-75.25 33.6,-22.32 112.5,-86.35 108.11,-148.47 -99.36,-1.4 -138.53,0.49 -213.84,37.86l61.48 -133.77c-76.17,78.85 -214.25,144.22 -339.31,144.47 -73.53,0.14 -140.71,-18.28 -197.91,-46.1 -88.21,-42.9 -131.37,-94.48 -148.06,-103.08l92.84 211.95zm-285.85 -852.15c-16.62,43.86 35.35,215.2 51.95,260.9 29.13,80.16 68.97,154.84 110.15,213.2 70.61,100.08 219.94,242.28 424.77,215.49 252.16,-32.97 406.43,-292.57 462.4,-507.77 15.6,-59.98 45.53,-218.78 37.62,-280.66l-215.49 -29.01c3.14,-7.45 25.54,-20.43 37.38,-40.45 37.66,-63.72 6.26,-157.06 -31.63,-208.86l-186.52 121.12c-114.92,69.67 -299.24,161.19 -432.42,197.21 -86.83,23.48 -173.2,36.61 -258.21,58.84z"/>
  <rect class="fil1" x="-0" y="-0" width="2940.03" height="2940.03"/>
 </g>
</svg>
