<?xml version="1.0" encoding="UTF-8"?>
<!DOCTYPE svg PUBLIC "-//W3C//DTD SVG 1.1//EN" "http://www.w3.org/Graphics/SVG/1.1/DTD/svg11.dtd">
<!-- Creator: CorelDRAW 2020 (64-Bit) -->
<svg xmlns="http://www.w3.org/2000/svg" xml:space="preserve" width="77.3286mm" height="77.3286mm" version="1.1" style="shape-rendering:geometricPrecision; text-rendering:geometricPrecision; image-rendering:optimizeQuality; fill-rule:evenodd; clip-rule:evenodd"
viewBox="0 0 2887.26 2887.26"
 xmlns:xlink="http://www.w3.org/1999/xlink"
 xmlns:xodm="http://www.corel.com/coreldraw/odm/2003">
 <defs>
  <style type="text/css">
   <![CDATA[
    .fil1 {fill:none}
    .fil0 {fill:#1A4C91}
   ]]>
  </style>
 </defs>
 <g id="Layer_x0020_1">
  <metadata id="CorelCorpID_0Corel-Layer"/>
  <path class="fil0" d="M2666.03 2535.55l0 -148.56c-17.93,-36.39 -14.13,-120.36 -68.17,-241.06 -64.03,-143.03 -154.28,-245.4 -277.09,-335.74 -62.39,-45.9 -123.84,-68.88 -200.61,-103.78l231.23 32.41c-21.51,-22.02 -41.45,-29.49 -86.87,-78.52 -20.23,-21.84 -47.88,-65.53 -63.75,-97.88 -149.09,-303.92 -79.83,-566.75 -120.07,-854.86 -107.68,-770.98 -798.96,-790.72 -1081.32,-463.49 -337.91,391.62 -97.42,896.64 -307.28,1314.04 -29.13,57.94 -74.63,122.64 -125.16,158.49l-27.5 24.67 150.16 -5.9c-10.62,12.49 -63.1,37.66 -85.75,51.95 -408.59,257.68 -483.73,829.61 -255.09,986.46 118.86,81.55 312.24,67.78 473.07,67.3 357.67,-1.06 716.96,-6.86 1075.32,-2.95 150.35,1.64 380.02,17.88 518.3,-13.47 246.8,-55.96 223.02,-223.73 250.58,-289.11zm-1468.76 -736.02c-71.31,-33.53 -122.48,-55.24 -218.13,-55.69 21.37,44.55 73.81,85.3 120.47,111.78 169.2,96.03 120.14,-11.19 210.29,140.81 14.77,24.9 29.96,48.79 44.65,72.33l83.15 134.18c8.2,10.3 3.44,4.38 8.15,9.13l166.97 -268.19c14.05,-23.21 9.26,-26.32 32.78,-33.96 74.56,-24.24 115.31,-32.96 176.94,-73.9 33,-21.92 110.48,-84.8 106.17,-145.8 -97.58,-1.37 -136.05,0.48 -210.01,37.18l60.37 -131.37c-74.8,77.43 -210.41,141.64 -333.22,141.88 -72.21,0.14 -138.19,-17.96 -194.36,-45.28 -86.63,-42.13 -129.02,-92.78 -145.4,-101.23l91.17 208.15zm-280.72 -836.85c-16.32,43.07 34.72,211.34 51.02,256.22 28.6,78.72 67.73,152.06 108.17,209.37 69.34,98.28 215.99,237.93 417.15,211.63 247.63,-32.38 399.13,-287.32 454.1,-498.66 15.32,-58.91 44.71,-214.86 36.94,-275.62l-211.62 -28.49c3.08,-7.31 25.08,-20.07 36.71,-39.73 36.99,-62.57 6.15,-154.25 -31.06,-205.11l-183.17 118.94c-112.85,68.42 -293.87,158.3 -424.66,193.67 -85.27,23.06 -170.09,35.95 -253.57,57.78z"/>
  <rect class="fil1" x="-0" y="-0" width="2887.26" height="2887.26"/>
 </g>
</svg>
