<?xml version="1.0" encoding="UTF-8"?>
<!DOCTYPE svg PUBLIC "-//W3C//DTD SVG 1.1//EN" "http://www.w3.org/Graphics/SVG/1.1/DTD/svg11.dtd">
<!-- Creator: CorelDRAW 2020 (64-Bit) -->
<svg xmlns="http://www.w3.org/2000/svg" xml:space="preserve" width="77.3286mm" height="77.3286mm" version="1.1" style="shape-rendering:geometricPrecision; text-rendering:geometricPrecision; image-rendering:optimizeQuality; fill-rule:evenodd; clip-rule:evenodd"
viewBox="0 0 26633.32 26633.32"
 xmlns:xlink="http://www.w3.org/1999/xlink"
 xmlns:xodm="http://www.corel.com/coreldraw/odm/2003">
 <defs>
  <style type="text/css">
   <![CDATA[
    .fil1 {fill:none}
    .fil0 {fill:#B8C3CF}
   ]]>
  </style>
 </defs>
 <g id="Layer_x0020_1">
  <metadata id="CorelCorpID_0Corel-Layer"/>
  <path class="fil0" d="M1733.52 21323.4l0 1294.01c95.37,235.37 140.59,816.27 265.82,1162.17 996.99,2753.79 4868,2427.14 7500.21,2427.14 2361.6,0 9420.47,99.26 11270.75,-93.37 1795.17,-186.92 3080.23,-717.25 3711.1,-2000.82 686.36,-1396.47 432.79,-3392.86 -76.98,-4786.78 -963.99,-2636.03 -3724.63,-4835.83 -6418.77,-4911.32 -99.36,206.27 -122.82,492.41 -239.03,701.44 -1368.13,2460.55 -7727.42,2323.16 -8891.72,-42.29 -135.94,-276.19 -101.53,-278.87 -165.35,-498.79l-64.3 -166.39c-1761.28,151.3 -3001.29,830.32 -4263.2,1826.89l-836.07 861.42c-698.79,890.01 -1184.35,1664.5 -1504.45,2817.16 -84.24,303.36 -213.92,1238.11 -288,1409.53zm11212.1 -20907c-2018.11,148.99 -3441.45,1252.78 -4249.49,2357.26 -1091.11,1491.33 -1384.01,3058.46 -1113.16,5281.54 235.41,1932.25 871.58,3495.32 1807.88,4784.75 746.39,1027.91 2295.61,2428.32 4375.89,2193.66 1864.64,-210.34 3107.47,-1586.18 3837.09,-2734.95 930.65,-1465.32 1325.08,-3075.44 1522.88,-5069.2 371.42,-3743.96 -2517.86,-7083.53 -6181.09,-6813.06zm-4017.11 5938.03l113.83 1709.34c-266.37,-111.94 -409.41,-266.75 -784.93,-341.59 242.75,2768.46 1948.16,6437.78 5048.02,6436.3 2927.24,-1.45 4832.38,-3414.04 5057.91,-6436.3 -336.77,71.36 -533.47,214.81 -798.57,345.9 93.54,-1062.63 311.28,-2279.42 -109.77,-3291.15 -358.47,-861.46 -743.84,-496 -1062.98,-376.38 -2214.6,830.22 -3909.28,860.35 -6133.01,12.09 -620.85,-236.82 -752.79,-372.87 -1078.78,337.43 -206.75,450.43 -253.32,1058.22 -251.73,1604.37z"/>
  <rect class="fil1" x="-0.02" y="-0.02" width="26633.32" height="26633.32"/>
 </g>
</svg>
