<?xml version="1.0" encoding="UTF-8"?>
<!DOCTYPE svg PUBLIC "-//W3C//DTD SVG 1.1//EN" "http://www.w3.org/Graphics/SVG/1.1/DTD/svg11.dtd">
<!-- Creator: CorelDRAW 2020 (64-Bit) -->
<svg xmlns="http://www.w3.org/2000/svg" xml:space="preserve" width="77.3286mm" height="77.3286mm" version="1.1" style="shape-rendering:geometricPrecision; text-rendering:geometricPrecision; image-rendering:optimizeQuality; fill-rule:evenodd; clip-rule:evenodd"
viewBox="0 0 31917.67 31917.67"
 xmlns:xlink="http://www.w3.org/1999/xlink"
 xmlns:xodm="http://www.corel.com/coreldraw/odm/2003">
 <defs>
  <style type="text/css">
   <![CDATA[
    .fil1 {fill:none}
    .fil0 {fill:#1A4C91}
   ]]>
  </style>
 </defs>
 <g id="Layer_x0020_1">
  <metadata id="CorelCorpID_0Corel-Layer"/>
  <path class="fil0" d="M2077.47 25554.21l0 1550.76c114.29,282.08 168.49,978.23 318.56,1392.76 1194.8,3300.17 5833.86,2908.72 8988.33,2908.72 2830.17,0 11289.6,118.96 13507,-111.9 2151.36,-224 3691.38,-859.56 4447.42,-2397.81 822.54,-1673.55 518.67,-4066.04 -92.25,-5736.53 -1155.26,-3159.05 -4463.64,-5795.31 -7692.33,-5885.79 -119.08,247.2 -147.19,590.11 -286.45,840.61 -1639.58,2948.75 -9260.63,2784.11 -10655.94,-50.69 -162.91,-330.99 -121.68,-334.21 -198.16,-597.75l-77.06 -199.4c-2110.74,181.32 -3596.78,995.07 -5109.07,2189.37l-1001.96 1032.34c-837.44,1066.6 -1419.34,1994.76 -1802.95,3376.12 -100.96,363.55 -256.36,1483.77 -345.14,1689.19zm13436.7 -25055.19c-2418.53,178.56 -4124.28,1501.35 -5092.64,2824.97 -1307.6,1787.22 -1658.61,3665.3 -1334.02,6329.46 282.12,2315.63 1044.51,4188.83 2166.59,5734.1 894.48,1231.86 2751.09,2910.12 5244.12,2628.91 2234.61,-252.07 3724.03,-1900.9 4598.41,-3277.6 1115.3,-1756.06 1587.99,-3685.64 1825.03,-6074.99 445.11,-4486.8 -3017.44,-8488.98 -7407.49,-8164.85zm-4814.15 7116.21l136.42 2048.5c-319.22,-134.14 -490.64,-319.68 -940.67,-409.37 290.91,3317.76 2334.7,7715.11 6049.61,7713.34 3508.04,-1.73 5791.18,-4091.42 6061.45,-7713.34 -403.59,85.52 -639.31,257.43 -957.01,414.53 112.1,-1273.47 373.05,-2731.69 -131.54,-3944.15 -429.59,-1032.38 -891.42,-594.41 -1273.88,-451.06 -2654.01,994.94 -4684.92,1031.06 -7349.87,14.49 -744.03,-283.81 -902.16,-446.85 -1292.83,404.37 -247.78,539.8 -303.58,1268.19 -301.68,1922.69z"/>
  <rect class="fil1" x="-0.03" y="-0.03" width="31917.68" height="31917.68"/>
 </g>
</svg>
